<?xml version="1.0" encoding="utf-8" standalone="no"?>
<!DOCTYPE svg PUBLIC "-//W3C//DTD SVG 1.1//EN"
  "http://www.w3.org/Graphics/SVG/1.1/DTD/svg11.dtd">
<svg xmlns:xlink="http://www.w3.org/1999/xlink" width="717.179889pt" height="404.370937pt" viewBox="0 0 717.179889 404.370937" xmlns="http://www.w3.org/2000/svg" version="1.1">
 <metadata>
  <rdf:RDF xmlns:dc="http://purl.org/dc/elements/1.1/" xmlns:cc="http://creativecommons.org/ns#" xmlns:rdf="http://www.w3.org/1999/02/22-rdf-syntax-ns#">
   <cc:Work>
    <dc:type rdf:resource="http://purl.org/dc/dcmitype/StillImage"/>
    <dc:date>2026-06-13T12:41:02.473825</dc:date>
    <dc:format>image/svg+xml</dc:format>
    <dc:creator>
     <cc:Agent>
      <dc:title>Matplotlib v3.10.9, https://matplotlib.org/</dc:title>
     </cc:Agent>
    </dc:creator>
   </cc:Work>
  </rdf:RDF>
 </metadata>
 <defs>
  <style type="text/css">*{stroke-linejoin: round; stroke-linecap: butt}</style>
 </defs>
 <g id="figure_1">
  <g id="patch_1">
   <path d="M 0 404.370937 
L 717.179889 404.370937 
L 717.179889 0 
L 0 0 
z
" style="fill: #ffffff"/>
  </g>
  <g id="axes_1">
   <g id="patch_2">
    <path d="M 410.40625 360.04 
L 684.77625 360.04 
L 684.77625 7.2 
L 410.40625 7.2 
z
" style="fill: #ffffff"/>
   </g>
   <g id="line2d_1">
    <path d="M 600.354712 360.04 
L 600.354712 7.2 
" clip-path="url(#p25705d1569)" style="fill: none; stroke-dasharray: 4.44,1.92; stroke-dashoffset: 0; stroke: #a0aec0; stroke-opacity: 0.7; stroke-width: 1.2"/>
   </g>
   <g id="line2d_2">
    <path d="M 474.777673 23.238182 
L 552.867596 23.238182 
" clip-path="url(#p25705d1569)" style="fill: none; stroke: #718096; stroke-width: 2.5; stroke-linecap: square"/>
   </g>
   <g id="line2d_3">
    <path d="M 516.988442 87.390909 
L 570.807173 87.390909 
" clip-path="url(#p25705d1569)" style="fill: none; stroke: #718096; stroke-width: 2.5; stroke-linecap: square"/>
   </g>
   <g id="line2d_4">
    <path d="M 511.712096 151.543636 
L 585.580942 151.543636 
" clip-path="url(#p25705d1569)" style="fill: none; stroke: #718096; stroke-width: 2.5; stroke-linecap: square"/>
   </g>
   <g id="line2d_5">
    <path d="M 531.762212 215.696364 
L 584.525673 215.696364 
" clip-path="url(#p25705d1569)" style="fill: none; stroke: #718096; stroke-width: 2.5; stroke-linecap: square"/>
   </g>
   <g id="line2d_6">
    <path d="M 543.370173 279.849091 
L 585.580942 279.849091 
" clip-path="url(#p25705d1569)" style="fill: none; stroke: #718096; stroke-width: 2.5; stroke-linecap: square"/>
   </g>
   <g id="matplotlib.axis_1">
    <g id="xtick_1">
     <g id="line2d_7">
      <path d="M 442.064327 360.04 
L 442.064327 7.2 
" clip-path="url(#p25705d1569)" style="fill: none; stroke-dasharray: 0.8,1.32; stroke-dashoffset: 0; stroke: #b0b0b0; stroke-opacity: 0.3; stroke-width: 0.8"/>
     </g>
     <g id="line2d_8">
      <defs>
       <path id="mba8ac1b38d" d="M 0 0 
L 0 3.5 
" style="stroke: #000000; stroke-width: 0.8"/>
      </defs>
      <g>
       <use xlink:href="#mba8ac1b38d" x="442.064327" y="360.04" style="stroke: #000000; stroke-width: 0.8"/>
      </g>
     </g>
     <g id="text_1">
      <!-- −1.5 -->
      <g transform="translate(426.280499 376.917969) scale(0.13 -0.13)">
       <defs>
        <path id="DejaVuSans-2212" d="M 678 2272 
L 4684 2272 
L 4684 1741 
L 678 1741 
L 678 2272 
z
" transform="scale(0.015625)"/>
        <path id="DejaVuSans-31" d="M 794 531 
L 1825 531 
L 1825 4091 
L 703 3866 
L 703 4441 
L 1819 4666 
L 2450 4666 
L 2450 531 
L 3481 531 
L 3481 0 
L 794 0 
L 794 531 
z
" transform="scale(0.015625)"/>
        <path id="DejaVuSans-2e" d="M 684 794 
L 1344 794 
L 1344 0 
L 684 0 
L 684 794 
z
" transform="scale(0.015625)"/>
        <path id="DejaVuSans-35" d="M 691 4666 
L 3169 4666 
L 3169 4134 
L 1269 4134 
L 1269 2991 
Q 1406 3038 1543 3061 
Q 1681 3084 1819 3084 
Q 2600 3084 3056 2656 
Q 3513 2228 3513 1497 
Q 3513 744 3044 326 
Q 2575 -91 1722 -91 
Q 1428 -91 1123 -41 
Q 819 9 494 109 
L 494 744 
Q 775 591 1075 516 
Q 1375 441 1709 441 
Q 2250 441 2565 725 
Q 2881 1009 2881 1497 
Q 2881 1984 2565 2268 
Q 2250 2553 1709 2553 
Q 1456 2553 1204 2497 
Q 953 2441 691 2322 
L 691 4666 
z
" transform="scale(0.015625)"/>
       </defs>
       <use xlink:href="#DejaVuSans-2212"/>
       <use xlink:href="#DejaVuSans-31" transform="translate(83.789062 0)"/>
       <use xlink:href="#DejaVuSans-2e" transform="translate(147.412109 0)"/>
       <use xlink:href="#DejaVuSans-35" transform="translate(179.199219 0)"/>
      </g>
     </g>
    </g>
    <g id="xtick_2">
     <g id="line2d_9">
      <path d="M 494.827788 360.04 
L 494.827788 7.2 
" clip-path="url(#p25705d1569)" style="fill: none; stroke-dasharray: 0.8,1.32; stroke-dashoffset: 0; stroke: #b0b0b0; stroke-opacity: 0.3; stroke-width: 0.8"/>
     </g>
     <g id="line2d_10">
      <g>
       <use xlink:href="#mba8ac1b38d" x="494.827788" y="360.04" style="stroke: #000000; stroke-width: 0.8"/>
      </g>
     </g>
     <g id="text_2">
      <!-- −1.0 -->
      <g transform="translate(479.04396 376.917969) scale(0.13 -0.13)">
       <defs>
        <path id="DejaVuSans-30" d="M 2034 4250 
Q 1547 4250 1301 3770 
Q 1056 3291 1056 2328 
Q 1056 1369 1301 889 
Q 1547 409 2034 409 
Q 2525 409 2770 889 
Q 3016 1369 3016 2328 
Q 3016 3291 2770 3770 
Q 2525 4250 2034 4250 
z
M 2034 4750 
Q 2819 4750 3233 4129 
Q 3647 3509 3647 2328 
Q 3647 1150 3233 529 
Q 2819 -91 2034 -91 
Q 1250 -91 836 529 
Q 422 1150 422 2328 
Q 422 3509 836 4129 
Q 1250 4750 2034 4750 
z
" transform="scale(0.015625)"/>
       </defs>
       <use xlink:href="#DejaVuSans-2212"/>
       <use xlink:href="#DejaVuSans-31" transform="translate(83.789062 0)"/>
       <use xlink:href="#DejaVuSans-2e" transform="translate(147.412109 0)"/>
       <use xlink:href="#DejaVuSans-30" transform="translate(179.199219 0)"/>
      </g>
     </g>
    </g>
    <g id="xtick_3">
     <g id="line2d_11">
      <path d="M 547.59125 360.04 
L 547.59125 7.2 
" clip-path="url(#p25705d1569)" style="fill: none; stroke-dasharray: 0.8,1.32; stroke-dashoffset: 0; stroke: #b0b0b0; stroke-opacity: 0.3; stroke-width: 0.8"/>
     </g>
     <g id="line2d_12">
      <g>
       <use xlink:href="#mba8ac1b38d" x="547.59125" y="360.04" style="stroke: #000000; stroke-width: 0.8"/>
      </g>
     </g>
     <g id="text_3">
      <!-- −0.5 -->
      <g transform="translate(531.807422 376.917969) scale(0.13 -0.13)">
       <use xlink:href="#DejaVuSans-2212"/>
       <use xlink:href="#DejaVuSans-30" transform="translate(83.789062 0)"/>
       <use xlink:href="#DejaVuSans-2e" transform="translate(147.412109 0)"/>
       <use xlink:href="#DejaVuSans-35" transform="translate(179.199219 0)"/>
      </g>
     </g>
    </g>
    <g id="xtick_4">
     <g id="line2d_13">
      <path d="M 600.354712 360.04 
L 600.354712 7.2 
" clip-path="url(#p25705d1569)" style="fill: none; stroke-dasharray: 0.8,1.32; stroke-dashoffset: 0; stroke: #b0b0b0; stroke-opacity: 0.3; stroke-width: 0.8"/>
     </g>
     <g id="line2d_14">
      <g>
       <use xlink:href="#mba8ac1b38d" x="600.354712" y="360.04" style="stroke: #000000; stroke-width: 0.8"/>
      </g>
     </g>
     <g id="text_4">
      <!-- 0.0 -->
      <g transform="translate(590.01768 376.917969) scale(0.13 -0.13)">
       <use xlink:href="#DejaVuSans-30"/>
       <use xlink:href="#DejaVuSans-2e" transform="translate(63.623047 0)"/>
       <use xlink:href="#DejaVuSans-30" transform="translate(95.410156 0)"/>
      </g>
     </g>
    </g>
    <g id="xtick_5">
     <g id="line2d_15">
      <path d="M 653.118173 360.04 
L 653.118173 7.2 
" clip-path="url(#p25705d1569)" style="fill: none; stroke-dasharray: 0.8,1.32; stroke-dashoffset: 0; stroke: #b0b0b0; stroke-opacity: 0.3; stroke-width: 0.8"/>
     </g>
     <g id="line2d_16">
      <g>
       <use xlink:href="#mba8ac1b38d" x="653.118173" y="360.04" style="stroke: #000000; stroke-width: 0.8"/>
      </g>
     </g>
     <g id="text_5">
      <!-- 0.5 -->
      <g transform="translate(642.781142 376.917969) scale(0.13 -0.13)">
       <use xlink:href="#DejaVuSans-30"/>
       <use xlink:href="#DejaVuSans-2e" transform="translate(63.623047 0)"/>
       <use xlink:href="#DejaVuSans-35" transform="translate(95.410156 0)"/>
      </g>
     </g>
    </g>
    <g id="text_6">
     <!-- Standardized Mean Difference (Hedges' g) -->
     <g transform="translate(398.970312 394.259375) scale(0.14 -0.14)">
      <defs>
       <path id="DejaVuSans-53" d="M 3425 4513 
L 3425 3897 
Q 3066 4069 2747 4153 
Q 2428 4238 2131 4238 
Q 1616 4238 1336 4038 
Q 1056 3838 1056 3469 
Q 1056 3159 1242 3001 
Q 1428 2844 1947 2747 
L 2328 2669 
Q 3034 2534 3370 2195 
Q 3706 1856 3706 1288 
Q 3706 609 3251 259 
Q 2797 -91 1919 -91 
Q 1588 -91 1214 -16 
Q 841 59 441 206 
L 441 856 
Q 825 641 1194 531 
Q 1563 422 1919 422 
Q 2459 422 2753 634 
Q 3047 847 3047 1241 
Q 3047 1584 2836 1778 
Q 2625 1972 2144 2069 
L 1759 2144 
Q 1053 2284 737 2584 
Q 422 2884 422 3419 
Q 422 4038 858 4394 
Q 1294 4750 2059 4750 
Q 2388 4750 2728 4690 
Q 3069 4631 3425 4513 
z
" transform="scale(0.015625)"/>
       <path id="DejaVuSans-74" d="M 1172 4494 
L 1172 3500 
L 2356 3500 
L 2356 3053 
L 1172 3053 
L 1172 1153 
Q 1172 725 1289 603 
Q 1406 481 1766 481 
L 2356 481 
L 2356 0 
L 1766 0 
Q 1100 0 847 248 
Q 594 497 594 1153 
L 594 3053 
L 172 3053 
L 172 3500 
L 594 3500 
L 594 4494 
L 1172 4494 
z
" transform="scale(0.015625)"/>
       <path id="DejaVuSans-61" d="M 2194 1759 
Q 1497 1759 1228 1600 
Q 959 1441 959 1056 
Q 959 750 1161 570 
Q 1363 391 1709 391 
Q 2188 391 2477 730 
Q 2766 1069 2766 1631 
L 2766 1759 
L 2194 1759 
z
M 3341 1997 
L 3341 0 
L 2766 0 
L 2766 531 
Q 2569 213 2275 61 
Q 1981 -91 1556 -91 
Q 1019 -91 701 211 
Q 384 513 384 1019 
Q 384 1609 779 1909 
Q 1175 2209 1959 2209 
L 2766 2209 
L 2766 2266 
Q 2766 2663 2505 2880 
Q 2244 3097 1772 3097 
Q 1472 3097 1187 3025 
Q 903 2953 641 2809 
L 641 3341 
Q 956 3463 1253 3523 
Q 1550 3584 1831 3584 
Q 2591 3584 2966 3190 
Q 3341 2797 3341 1997 
z
" transform="scale(0.015625)"/>
       <path id="DejaVuSans-6e" d="M 3513 2113 
L 3513 0 
L 2938 0 
L 2938 2094 
Q 2938 2591 2744 2837 
Q 2550 3084 2163 3084 
Q 1697 3084 1428 2787 
Q 1159 2491 1159 1978 
L 1159 0 
L 581 0 
L 581 3500 
L 1159 3500 
L 1159 2956 
Q 1366 3272 1645 3428 
Q 1925 3584 2291 3584 
Q 2894 3584 3203 3211 
Q 3513 2838 3513 2113 
z
" transform="scale(0.015625)"/>
       <path id="DejaVuSans-64" d="M 2906 2969 
L 2906 4863 
L 3481 4863 
L 3481 0 
L 2906 0 
L 2906 525 
Q 2725 213 2448 61 
Q 2172 -91 1784 -91 
Q 1150 -91 751 415 
Q 353 922 353 1747 
Q 353 2572 751 3078 
Q 1150 3584 1784 3584 
Q 2172 3584 2448 3432 
Q 2725 3281 2906 2969 
z
M 947 1747 
Q 947 1113 1208 752 
Q 1469 391 1925 391 
Q 2381 391 2643 752 
Q 2906 1113 2906 1747 
Q 2906 2381 2643 2742 
Q 2381 3103 1925 3103 
Q 1469 3103 1208 2742 
Q 947 2381 947 1747 
z
" transform="scale(0.015625)"/>
       <path id="DejaVuSans-72" d="M 2631 2963 
Q 2534 3019 2420 3045 
Q 2306 3072 2169 3072 
Q 1681 3072 1420 2755 
Q 1159 2438 1159 1844 
L 1159 0 
L 581 0 
L 581 3500 
L 1159 3500 
L 1159 2956 
Q 1341 3275 1631 3429 
Q 1922 3584 2338 3584 
Q 2397 3584 2469 3576 
Q 2541 3569 2628 3553 
L 2631 2963 
z
" transform="scale(0.015625)"/>
       <path id="DejaVuSans-69" d="M 603 3500 
L 1178 3500 
L 1178 0 
L 603 0 
L 603 3500 
z
M 603 4863 
L 1178 4863 
L 1178 4134 
L 603 4134 
L 603 4863 
z
" transform="scale(0.015625)"/>
       <path id="DejaVuSans-7a" d="M 353 3500 
L 3084 3500 
L 3084 2975 
L 922 459 
L 3084 459 
L 3084 0 
L 275 0 
L 275 525 
L 2438 3041 
L 353 3041 
L 353 3500 
z
" transform="scale(0.015625)"/>
       <path id="DejaVuSans-65" d="M 3597 1894 
L 3597 1613 
L 953 1613 
Q 991 1019 1311 708 
Q 1631 397 2203 397 
Q 2534 397 2845 478 
Q 3156 559 3463 722 
L 3463 178 
Q 3153 47 2828 -22 
Q 2503 -91 2169 -91 
Q 1331 -91 842 396 
Q 353 884 353 1716 
Q 353 2575 817 3079 
Q 1281 3584 2069 3584 
Q 2775 3584 3186 3129 
Q 3597 2675 3597 1894 
z
M 3022 2063 
Q 3016 2534 2758 2815 
Q 2500 3097 2075 3097 
Q 1594 3097 1305 2825 
Q 1016 2553 972 2059 
L 3022 2063 
z
" transform="scale(0.015625)"/>
       <path id="DejaVuSans-20" transform="scale(0.015625)"/>
       <path id="DejaVuSans-4d" d="M 628 4666 
L 1569 4666 
L 2759 1491 
L 3956 4666 
L 4897 4666 
L 4897 0 
L 4281 0 
L 4281 4097 
L 3078 897 
L 2444 897 
L 1241 4097 
L 1241 0 
L 628 0 
L 628 4666 
z
" transform="scale(0.015625)"/>
       <path id="DejaVuSans-44" d="M 1259 4147 
L 1259 519 
L 2022 519 
Q 2988 519 3436 956 
Q 3884 1394 3884 2338 
Q 3884 3275 3436 3711 
Q 2988 4147 2022 4147 
L 1259 4147 
z
M 628 4666 
L 1925 4666 
Q 3281 4666 3915 4102 
Q 4550 3538 4550 2338 
Q 4550 1131 3912 565 
Q 3275 0 1925 0 
L 628 0 
L 628 4666 
z
" transform="scale(0.015625)"/>
       <path id="DejaVuSans-66" d="M 2375 4863 
L 2375 4384 
L 1825 4384 
Q 1516 4384 1395 4259 
Q 1275 4134 1275 3809 
L 1275 3500 
L 2222 3500 
L 2222 3053 
L 1275 3053 
L 1275 0 
L 697 0 
L 697 3053 
L 147 3053 
L 147 3500 
L 697 3500 
L 697 3744 
Q 697 4328 969 4595 
Q 1241 4863 1831 4863 
L 2375 4863 
z
" transform="scale(0.015625)"/>
       <path id="DejaVuSans-63" d="M 3122 3366 
L 3122 2828 
Q 2878 2963 2633 3030 
Q 2388 3097 2138 3097 
Q 1578 3097 1268 2742 
Q 959 2388 959 1747 
Q 959 1106 1268 751 
Q 1578 397 2138 397 
Q 2388 397 2633 464 
Q 2878 531 3122 666 
L 3122 134 
Q 2881 22 2623 -34 
Q 2366 -91 2075 -91 
Q 1284 -91 818 406 
Q 353 903 353 1747 
Q 353 2603 823 3093 
Q 1294 3584 2113 3584 
Q 2378 3584 2631 3529 
Q 2884 3475 3122 3366 
z
" transform="scale(0.015625)"/>
       <path id="DejaVuSans-28" d="M 1984 4856 
Q 1566 4138 1362 3434 
Q 1159 2731 1159 2009 
Q 1159 1288 1364 580 
Q 1569 -128 1984 -844 
L 1484 -844 
Q 1016 -109 783 600 
Q 550 1309 550 2009 
Q 550 2706 781 3412 
Q 1013 4119 1484 4856 
L 1984 4856 
z
" transform="scale(0.015625)"/>
       <path id="DejaVuSans-48" d="M 628 4666 
L 1259 4666 
L 1259 2753 
L 3553 2753 
L 3553 4666 
L 4184 4666 
L 4184 0 
L 3553 0 
L 3553 2222 
L 1259 2222 
L 1259 0 
L 628 0 
L 628 4666 
z
" transform="scale(0.015625)"/>
       <path id="DejaVuSans-67" d="M 2906 1791 
Q 2906 2416 2648 2759 
Q 2391 3103 1925 3103 
Q 1463 3103 1205 2759 
Q 947 2416 947 1791 
Q 947 1169 1205 825 
Q 1463 481 1925 481 
Q 2391 481 2648 825 
Q 2906 1169 2906 1791 
z
M 3481 434 
Q 3481 -459 3084 -895 
Q 2688 -1331 1869 -1331 
Q 1566 -1331 1297 -1286 
Q 1028 -1241 775 -1147 
L 775 -588 
Q 1028 -725 1275 -790 
Q 1522 -856 1778 -856 
Q 2344 -856 2625 -561 
Q 2906 -266 2906 331 
L 2906 616 
Q 2728 306 2450 153 
Q 2172 0 1784 0 
Q 1141 0 747 490 
Q 353 981 353 1791 
Q 353 2603 747 3093 
Q 1141 3584 1784 3584 
Q 2172 3584 2450 3431 
Q 2728 3278 2906 2969 
L 2906 3500 
L 3481 3500 
L 3481 434 
z
" transform="scale(0.015625)"/>
       <path id="DejaVuSans-73" d="M 2834 3397 
L 2834 2853 
Q 2591 2978 2328 3040 
Q 2066 3103 1784 3103 
Q 1356 3103 1142 2972 
Q 928 2841 928 2578 
Q 928 2378 1081 2264 
Q 1234 2150 1697 2047 
L 1894 2003 
Q 2506 1872 2764 1633 
Q 3022 1394 3022 966 
Q 3022 478 2636 193 
Q 2250 -91 1575 -91 
Q 1294 -91 989 -36 
Q 684 19 347 128 
L 347 722 
Q 666 556 975 473 
Q 1284 391 1588 391 
Q 1994 391 2212 530 
Q 2431 669 2431 922 
Q 2431 1156 2273 1281 
Q 2116 1406 1581 1522 
L 1381 1569 
Q 847 1681 609 1914 
Q 372 2147 372 2553 
Q 372 3047 722 3315 
Q 1072 3584 1716 3584 
Q 2034 3584 2315 3537 
Q 2597 3491 2834 3397 
z
" transform="scale(0.015625)"/>
       <path id="DejaVuSans-27" d="M 1147 4666 
L 1147 2931 
L 616 2931 
L 616 4666 
L 1147 4666 
z
" transform="scale(0.015625)"/>
       <path id="DejaVuSans-29" d="M 513 4856 
L 1013 4856 
Q 1481 4119 1714 3412 
Q 1947 2706 1947 2009 
Q 1947 1309 1714 600 
Q 1481 -109 1013 -844 
L 513 -844 
Q 928 -128 1133 580 
Q 1338 1288 1338 2009 
Q 1338 2731 1133 3434 
Q 928 4138 513 4856 
z
" transform="scale(0.015625)"/>
      </defs>
      <use xlink:href="#DejaVuSans-53"/>
      <use xlink:href="#DejaVuSans-74" transform="translate(63.476562 0)"/>
      <use xlink:href="#DejaVuSans-61" transform="translate(102.685547 0)"/>
      <use xlink:href="#DejaVuSans-6e" transform="translate(163.964844 0)"/>
      <use xlink:href="#DejaVuSans-64" transform="translate(227.34375 0)"/>
      <use xlink:href="#DejaVuSans-61" transform="translate(290.820312 0)"/>
      <use xlink:href="#DejaVuSans-72" transform="translate(352.099609 0)"/>
      <use xlink:href="#DejaVuSans-64" transform="translate(391.462891 0)"/>
      <use xlink:href="#DejaVuSans-69" transform="translate(454.939453 0)"/>
      <use xlink:href="#DejaVuSans-7a" transform="translate(482.722656 0)"/>
      <use xlink:href="#DejaVuSans-65" transform="translate(535.212891 0)"/>
      <use xlink:href="#DejaVuSans-64" transform="translate(596.736328 0)"/>
      <use xlink:href="#DejaVuSans-20" transform="translate(660.212891 0)"/>
      <use xlink:href="#DejaVuSans-4d" transform="translate(692 0)"/>
      <use xlink:href="#DejaVuSans-65" transform="translate(778.279297 0)"/>
      <use xlink:href="#DejaVuSans-61" transform="translate(839.802734 0)"/>
      <use xlink:href="#DejaVuSans-6e" transform="translate(901.082031 0)"/>
      <use xlink:href="#DejaVuSans-20" transform="translate(964.460938 0)"/>
      <use xlink:href="#DejaVuSans-44" transform="translate(996.248047 0)"/>
      <use xlink:href="#DejaVuSans-69" transform="translate(1073.25 0)"/>
      <use xlink:href="#DejaVuSans-66" transform="translate(1101.033203 0)"/>
      <use xlink:href="#DejaVuSans-66" transform="translate(1136.238281 0)"/>
      <use xlink:href="#DejaVuSans-65" transform="translate(1171.443359 0)"/>
      <use xlink:href="#DejaVuSans-72" transform="translate(1232.966797 0)"/>
      <use xlink:href="#DejaVuSans-65" transform="translate(1271.830078 0)"/>
      <use xlink:href="#DejaVuSans-6e" transform="translate(1333.353516 0)"/>
      <use xlink:href="#DejaVuSans-63" transform="translate(1396.732422 0)"/>
      <use xlink:href="#DejaVuSans-65" transform="translate(1451.712891 0)"/>
      <use xlink:href="#DejaVuSans-20" transform="translate(1513.236328 0)"/>
      <use xlink:href="#DejaVuSans-28" transform="translate(1545.023438 0)"/>
      <use xlink:href="#DejaVuSans-48" transform="translate(1584.037109 0)"/>
      <use xlink:href="#DejaVuSans-65" transform="translate(1659.232422 0)"/>
      <use xlink:href="#DejaVuSans-64" transform="translate(1720.755859 0)"/>
      <use xlink:href="#DejaVuSans-67" transform="translate(1784.232422 0)"/>
      <use xlink:href="#DejaVuSans-65" transform="translate(1847.708984 0)"/>
      <use xlink:href="#DejaVuSans-73" transform="translate(1909.232422 0)"/>
      <use xlink:href="#DejaVuSans-27" transform="translate(1961.332031 0)"/>
      <use xlink:href="#DejaVuSans-20" transform="translate(1988.822266 0)"/>
      <use xlink:href="#DejaVuSans-67" transform="translate(2020.609375 0)"/>
      <use xlink:href="#DejaVuSans-29" transform="translate(2084.085938 0)"/>
     </g>
    </g>
   </g>
   <g id="matplotlib.axis_2">
    <g id="ytick_1">
     <g id="line2d_17">
      <defs>
       <path id="m4db1af6253" d="M 0 0 
L -3.5 0 
" style="stroke: #000000; stroke-width: 0.8"/>
      </defs>
      <g>
       <use xlink:href="#m4db1af6253" x="410.40625" y="23.238182" style="stroke: #000000; stroke-width: 0.8"/>
      </g>
     </g>
     <g id="text_7">
      <!-- Impact of exercise type, duration intensity (Front. Psychol., 2024) -->
      <g transform="translate(42.984375 27.417322) scale(0.11 -0.11)">
       <defs>
        <path id="DejaVuSans-49" d="M 628 4666 
L 1259 4666 
L 1259 0 
L 628 0 
L 628 4666 
z
" transform="scale(0.015625)"/>
        <path id="DejaVuSans-6d" d="M 3328 2828 
Q 3544 3216 3844 3400 
Q 4144 3584 4550 3584 
Q 5097 3584 5394 3201 
Q 5691 2819 5691 2113 
L 5691 0 
L 5113 0 
L 5113 2094 
Q 5113 2597 4934 2840 
Q 4756 3084 4391 3084 
Q 3944 3084 3684 2787 
Q 3425 2491 3425 1978 
L 3425 0 
L 2847 0 
L 2847 2094 
Q 2847 2600 2669 2842 
Q 2491 3084 2119 3084 
Q 1678 3084 1418 2786 
Q 1159 2488 1159 1978 
L 1159 0 
L 581 0 
L 581 3500 
L 1159 3500 
L 1159 2956 
Q 1356 3278 1631 3431 
Q 1906 3584 2284 3584 
Q 2666 3584 2933 3390 
Q 3200 3197 3328 2828 
z
" transform="scale(0.015625)"/>
        <path id="DejaVuSans-70" d="M 1159 525 
L 1159 -1331 
L 581 -1331 
L 581 3500 
L 1159 3500 
L 1159 2969 
Q 1341 3281 1617 3432 
Q 1894 3584 2278 3584 
Q 2916 3584 3314 3078 
Q 3713 2572 3713 1747 
Q 3713 922 3314 415 
Q 2916 -91 2278 -91 
Q 1894 -91 1617 61 
Q 1341 213 1159 525 
z
M 3116 1747 
Q 3116 2381 2855 2742 
Q 2594 3103 2138 3103 
Q 1681 3103 1420 2742 
Q 1159 2381 1159 1747 
Q 1159 1113 1420 752 
Q 1681 391 2138 391 
Q 2594 391 2855 752 
Q 3116 1113 3116 1747 
z
" transform="scale(0.015625)"/>
        <path id="DejaVuSans-6f" d="M 1959 3097 
Q 1497 3097 1228 2736 
Q 959 2375 959 1747 
Q 959 1119 1226 758 
Q 1494 397 1959 397 
Q 2419 397 2687 759 
Q 2956 1122 2956 1747 
Q 2956 2369 2687 2733 
Q 2419 3097 1959 3097 
z
M 1959 3584 
Q 2709 3584 3137 3096 
Q 3566 2609 3566 1747 
Q 3566 888 3137 398 
Q 2709 -91 1959 -91 
Q 1206 -91 779 398 
Q 353 888 353 1747 
Q 353 2609 779 3096 
Q 1206 3584 1959 3584 
z
" transform="scale(0.015625)"/>
        <path id="DejaVuSans-78" d="M 3513 3500 
L 2247 1797 
L 3578 0 
L 2900 0 
L 1881 1375 
L 863 0 
L 184 0 
L 1544 1831 
L 300 3500 
L 978 3500 
L 1906 2253 
L 2834 3500 
L 3513 3500 
z
" transform="scale(0.015625)"/>
        <path id="DejaVuSans-79" d="M 2059 -325 
Q 1816 -950 1584 -1140 
Q 1353 -1331 966 -1331 
L 506 -1331 
L 506 -850 
L 844 -850 
Q 1081 -850 1212 -737 
Q 1344 -625 1503 -206 
L 1606 56 
L 191 3500 
L 800 3500 
L 1894 763 
L 2988 3500 
L 3597 3500 
L 2059 -325 
z
" transform="scale(0.015625)"/>
        <path id="DejaVuSans-2c" d="M 750 794 
L 1409 794 
L 1409 256 
L 897 -744 
L 494 -744 
L 750 256 
L 750 794 
z
" transform="scale(0.015625)"/>
        <path id="DejaVuSans-75" d="M 544 1381 
L 544 3500 
L 1119 3500 
L 1119 1403 
Q 1119 906 1312 657 
Q 1506 409 1894 409 
Q 2359 409 2629 706 
Q 2900 1003 2900 1516 
L 2900 3500 
L 3475 3500 
L 3475 0 
L 2900 0 
L 2900 538 
Q 2691 219 2414 64 
Q 2138 -91 1772 -91 
Q 1169 -91 856 284 
Q 544 659 544 1381 
z
M 1991 3584 
L 1991 3584 
z
" transform="scale(0.015625)"/>
        <path id="DejaVuSans-46" d="M 628 4666 
L 3309 4666 
L 3309 4134 
L 1259 4134 
L 1259 2759 
L 3109 2759 
L 3109 2228 
L 1259 2228 
L 1259 0 
L 628 0 
L 628 4666 
z
" transform="scale(0.015625)"/>
        <path id="DejaVuSans-50" d="M 1259 4147 
L 1259 2394 
L 2053 2394 
Q 2494 2394 2734 2622 
Q 2975 2850 2975 3272 
Q 2975 3691 2734 3919 
Q 2494 4147 2053 4147 
L 1259 4147 
z
M 628 4666 
L 2053 4666 
Q 2838 4666 3239 4311 
Q 3641 3956 3641 3272 
Q 3641 2581 3239 2228 
Q 2838 1875 2053 1875 
L 1259 1875 
L 1259 0 
L 628 0 
L 628 4666 
z
" transform="scale(0.015625)"/>
        <path id="DejaVuSans-68" d="M 3513 2113 
L 3513 0 
L 2938 0 
L 2938 2094 
Q 2938 2591 2744 2837 
Q 2550 3084 2163 3084 
Q 1697 3084 1428 2787 
Q 1159 2491 1159 1978 
L 1159 0 
L 581 0 
L 581 4863 
L 1159 4863 
L 1159 2956 
Q 1366 3272 1645 3428 
Q 1925 3584 2291 3584 
Q 2894 3584 3203 3211 
Q 3513 2838 3513 2113 
z
" transform="scale(0.015625)"/>
        <path id="DejaVuSans-6c" d="M 603 4863 
L 1178 4863 
L 1178 0 
L 603 0 
L 603 4863 
z
" transform="scale(0.015625)"/>
        <path id="DejaVuSans-32" d="M 1228 531 
L 3431 531 
L 3431 0 
L 469 0 
L 469 531 
Q 828 903 1448 1529 
Q 2069 2156 2228 2338 
Q 2531 2678 2651 2914 
Q 2772 3150 2772 3378 
Q 2772 3750 2511 3984 
Q 2250 4219 1831 4219 
Q 1534 4219 1204 4116 
Q 875 4013 500 3803 
L 500 4441 
Q 881 4594 1212 4672 
Q 1544 4750 1819 4750 
Q 2544 4750 2975 4387 
Q 3406 4025 3406 3419 
Q 3406 3131 3298 2873 
Q 3191 2616 2906 2266 
Q 2828 2175 2409 1742 
Q 1991 1309 1228 531 
z
" transform="scale(0.015625)"/>
        <path id="DejaVuSans-34" d="M 2419 4116 
L 825 1625 
L 2419 1625 
L 2419 4116 
z
M 2253 4666 
L 3047 4666 
L 3047 1625 
L 3713 1625 
L 3713 1100 
L 3047 1100 
L 3047 0 
L 2419 0 
L 2419 1100 
L 313 1100 
L 313 1709 
L 2253 4666 
z
" transform="scale(0.015625)"/>
       </defs>
       <use xlink:href="#DejaVuSans-49"/>
       <use xlink:href="#DejaVuSans-6d" transform="translate(29.492188 0)"/>
       <use xlink:href="#DejaVuSans-70" transform="translate(126.904297 0)"/>
       <use xlink:href="#DejaVuSans-61" transform="translate(190.380859 0)"/>
       <use xlink:href="#DejaVuSans-63" transform="translate(251.660156 0)"/>
       <use xlink:href="#DejaVuSans-74" transform="translate(306.640625 0)"/>
       <use xlink:href="#DejaVuSans-20" transform="translate(345.849609 0)"/>
       <use xlink:href="#DejaVuSans-6f" transform="translate(377.636719 0)"/>
       <use xlink:href="#DejaVuSans-66" transform="translate(438.818359 0)"/>
       <use xlink:href="#DejaVuSans-20" transform="translate(474.023438 0)"/>
       <use xlink:href="#DejaVuSans-65" transform="translate(505.810547 0)"/>
       <use xlink:href="#DejaVuSans-78" transform="translate(565.583984 0)"/>
       <use xlink:href="#DejaVuSans-65" transform="translate(621.638672 0)"/>
       <use xlink:href="#DejaVuSans-72" transform="translate(683.162109 0)"/>
       <use xlink:href="#DejaVuSans-63" transform="translate(722.025391 0)"/>
       <use xlink:href="#DejaVuSans-69" transform="translate(777.005859 0)"/>
       <use xlink:href="#DejaVuSans-73" transform="translate(804.789062 0)"/>
       <use xlink:href="#DejaVuSans-65" transform="translate(856.888672 0)"/>
       <use xlink:href="#DejaVuSans-20" transform="translate(918.412109 0)"/>
       <use xlink:href="#DejaVuSans-74" transform="translate(950.199219 0)"/>
       <use xlink:href="#DejaVuSans-79" transform="translate(989.408203 0)"/>
       <use xlink:href="#DejaVuSans-70" transform="translate(1048.587891 0)"/>
       <use xlink:href="#DejaVuSans-65" transform="translate(1112.064453 0)"/>
       <use xlink:href="#DejaVuSans-2c" transform="translate(1173.587891 0)"/>
       <use xlink:href="#DejaVuSans-20" transform="translate(1205.375 0)"/>
       <use xlink:href="#DejaVuSans-64" transform="translate(1237.162109 0)"/>
       <use xlink:href="#DejaVuSans-75" transform="translate(1300.638672 0)"/>
       <use xlink:href="#DejaVuSans-72" transform="translate(1364.017578 0)"/>
       <use xlink:href="#DejaVuSans-61" transform="translate(1405.130859 0)"/>
       <use xlink:href="#DejaVuSans-74" transform="translate(1466.410156 0)"/>
       <use xlink:href="#DejaVuSans-69" transform="translate(1505.619141 0)"/>
       <use xlink:href="#DejaVuSans-6f" transform="translate(1533.402344 0)"/>
       <use xlink:href="#DejaVuSans-6e" transform="translate(1594.583984 0)"/>
       <use xlink:href="#DejaVuSans-20" transform="translate(1657.962891 0)"/>
       <use xlink:href="#DejaVuSans-69" transform="translate(1689.75 0)"/>
       <use xlink:href="#DejaVuSans-6e" transform="translate(1717.533203 0)"/>
       <use xlink:href="#DejaVuSans-74" transform="translate(1780.912109 0)"/>
       <use xlink:href="#DejaVuSans-65" transform="translate(1820.121094 0)"/>
       <use xlink:href="#DejaVuSans-6e" transform="translate(1881.644531 0)"/>
       <use xlink:href="#DejaVuSans-73" transform="translate(1945.023438 0)"/>
       <use xlink:href="#DejaVuSans-69" transform="translate(1997.123047 0)"/>
       <use xlink:href="#DejaVuSans-74" transform="translate(2024.90625 0)"/>
       <use xlink:href="#DejaVuSans-79" transform="translate(2064.115234 0)"/>
       <use xlink:href="#DejaVuSans-20" transform="translate(2123.294922 0)"/>
       <use xlink:href="#DejaVuSans-28" transform="translate(2155.082031 0)"/>
       <use xlink:href="#DejaVuSans-46" transform="translate(2194.095703 0)"/>
       <use xlink:href="#DejaVuSans-72" transform="translate(2244.365234 0)"/>
       <use xlink:href="#DejaVuSans-6f" transform="translate(2283.228516 0)"/>
       <use xlink:href="#DejaVuSans-6e" transform="translate(2344.410156 0)"/>
       <use xlink:href="#DejaVuSans-74" transform="translate(2407.789062 0)"/>
       <use xlink:href="#DejaVuSans-2e" transform="translate(2446.998047 0)"/>
       <use xlink:href="#DejaVuSans-20" transform="translate(2478.785156 0)"/>
       <use xlink:href="#DejaVuSans-50" transform="translate(2510.572266 0)"/>
       <use xlink:href="#DejaVuSans-73" transform="translate(2569.125 0)"/>
       <use xlink:href="#DejaVuSans-79" transform="translate(2621.224609 0)"/>
       <use xlink:href="#DejaVuSans-63" transform="translate(2680.404297 0)"/>
       <use xlink:href="#DejaVuSans-68" transform="translate(2735.384766 0)"/>
       <use xlink:href="#DejaVuSans-6f" transform="translate(2798.763672 0)"/>
       <use xlink:href="#DejaVuSans-6c" transform="translate(2859.945312 0)"/>
       <use xlink:href="#DejaVuSans-2e" transform="translate(2887.728516 0)"/>
       <use xlink:href="#DejaVuSans-2c" transform="translate(2919.515625 0)"/>
       <use xlink:href="#DejaVuSans-20" transform="translate(2951.302734 0)"/>
       <use xlink:href="#DejaVuSans-32" transform="translate(2983.089844 0)"/>
       <use xlink:href="#DejaVuSans-30" transform="translate(3046.712891 0)"/>
       <use xlink:href="#DejaVuSans-32" transform="translate(3110.335938 0)"/>
       <use xlink:href="#DejaVuSans-34" transform="translate(3173.958984 0)"/>
       <use xlink:href="#DejaVuSans-29" transform="translate(3237.582031 0)"/>
      </g>
     </g>
    </g>
    <g id="ytick_2">
     <g id="line2d_18">
      <g>
       <use xlink:href="#m4db1af6253" x="410.40625" y="87.390909" style="stroke: #000000; stroke-width: 0.8"/>
      </g>
     </g>
     <g id="text_8">
      <!-- Exercise Interventions for Depression, Anxiety (JAMA Netw. Open, 2025) -->
      <g transform="translate(7.2 91.57005) scale(0.11 -0.11)">
       <defs>
        <path id="DejaVuSans-45" d="M 628 4666 
L 3578 4666 
L 3578 4134 
L 1259 4134 
L 1259 2753 
L 3481 2753 
L 3481 2222 
L 1259 2222 
L 1259 531 
L 3634 531 
L 3634 0 
L 628 0 
L 628 4666 
z
" transform="scale(0.015625)"/>
        <path id="DejaVuSans-76" d="M 191 3500 
L 800 3500 
L 1894 563 
L 2988 3500 
L 3597 3500 
L 2284 0 
L 1503 0 
L 191 3500 
z
" transform="scale(0.015625)"/>
        <path id="DejaVuSans-41" d="M 2188 4044 
L 1331 1722 
L 3047 1722 
L 2188 4044 
z
M 1831 4666 
L 2547 4666 
L 4325 0 
L 3669 0 
L 3244 1197 
L 1141 1197 
L 716 0 
L 50 0 
L 1831 4666 
z
" transform="scale(0.015625)"/>
        <path id="DejaVuSans-4a" d="M 628 4666 
L 1259 4666 
L 1259 325 
Q 1259 -519 939 -900 
Q 619 -1281 -91 -1281 
L -331 -1281 
L -331 -750 
L -134 -750 
Q 284 -750 456 -515 
Q 628 -281 628 325 
L 628 4666 
z
" transform="scale(0.015625)"/>
        <path id="DejaVuSans-4e" d="M 628 4666 
L 1478 4666 
L 3547 763 
L 3547 4666 
L 4159 4666 
L 4159 0 
L 3309 0 
L 1241 3903 
L 1241 0 
L 628 0 
L 628 4666 
z
" transform="scale(0.015625)"/>
        <path id="DejaVuSans-77" d="M 269 3500 
L 844 3500 
L 1563 769 
L 2278 3500 
L 2956 3500 
L 3675 769 
L 4391 3500 
L 4966 3500 
L 4050 0 
L 3372 0 
L 2619 2869 
L 1863 0 
L 1184 0 
L 269 3500 
z
" transform="scale(0.015625)"/>
        <path id="DejaVuSans-4f" d="M 2522 4238 
Q 1834 4238 1429 3725 
Q 1025 3213 1025 2328 
Q 1025 1447 1429 934 
Q 1834 422 2522 422 
Q 3209 422 3611 934 
Q 4013 1447 4013 2328 
Q 4013 3213 3611 3725 
Q 3209 4238 2522 4238 
z
M 2522 4750 
Q 3503 4750 4090 4092 
Q 4678 3434 4678 2328 
Q 4678 1225 4090 567 
Q 3503 -91 2522 -91 
Q 1538 -91 948 565 
Q 359 1222 359 2328 
Q 359 3434 948 4092 
Q 1538 4750 2522 4750 
z
" transform="scale(0.015625)"/>
       </defs>
       <use xlink:href="#DejaVuSans-45"/>
       <use xlink:href="#DejaVuSans-78" transform="translate(63.183594 0)"/>
       <use xlink:href="#DejaVuSans-65" transform="translate(119.238281 0)"/>
       <use xlink:href="#DejaVuSans-72" transform="translate(180.761719 0)"/>
       <use xlink:href="#DejaVuSans-63" transform="translate(219.625 0)"/>
       <use xlink:href="#DejaVuSans-69" transform="translate(274.605469 0)"/>
       <use xlink:href="#DejaVuSans-73" transform="translate(302.388672 0)"/>
       <use xlink:href="#DejaVuSans-65" transform="translate(354.488281 0)"/>
       <use xlink:href="#DejaVuSans-20" transform="translate(416.011719 0)"/>
       <use xlink:href="#DejaVuSans-49" transform="translate(447.798828 0)"/>
       <use xlink:href="#DejaVuSans-6e" transform="translate(477.291016 0)"/>
       <use xlink:href="#DejaVuSans-74" transform="translate(540.669922 0)"/>
       <use xlink:href="#DejaVuSans-65" transform="translate(579.878906 0)"/>
       <use xlink:href="#DejaVuSans-72" transform="translate(641.402344 0)"/>
       <use xlink:href="#DejaVuSans-76" transform="translate(682.515625 0)"/>
       <use xlink:href="#DejaVuSans-65" transform="translate(741.695312 0)"/>
       <use xlink:href="#DejaVuSans-6e" transform="translate(803.21875 0)"/>
       <use xlink:href="#DejaVuSans-74" transform="translate(866.597656 0)"/>
       <use xlink:href="#DejaVuSans-69" transform="translate(905.806641 0)"/>
       <use xlink:href="#DejaVuSans-6f" transform="translate(933.589844 0)"/>
       <use xlink:href="#DejaVuSans-6e" transform="translate(994.771484 0)"/>
       <use xlink:href="#DejaVuSans-73" transform="translate(1058.150391 0)"/>
       <use xlink:href="#DejaVuSans-20" transform="translate(1110.25 0)"/>
       <use xlink:href="#DejaVuSans-66" transform="translate(1142.037109 0)"/>
       <use xlink:href="#DejaVuSans-6f" transform="translate(1177.242188 0)"/>
       <use xlink:href="#DejaVuSans-72" transform="translate(1238.423828 0)"/>
       <use xlink:href="#DejaVuSans-20" transform="translate(1279.537109 0)"/>
       <use xlink:href="#DejaVuSans-44" transform="translate(1311.324219 0)"/>
       <use xlink:href="#DejaVuSans-65" transform="translate(1388.326172 0)"/>
       <use xlink:href="#DejaVuSans-70" transform="translate(1449.849609 0)"/>
       <use xlink:href="#DejaVuSans-72" transform="translate(1513.326172 0)"/>
       <use xlink:href="#DejaVuSans-65" transform="translate(1552.189453 0)"/>
       <use xlink:href="#DejaVuSans-73" transform="translate(1613.712891 0)"/>
       <use xlink:href="#DejaVuSans-73" transform="translate(1665.8125 0)"/>
       <use xlink:href="#DejaVuSans-69" transform="translate(1717.912109 0)"/>
       <use xlink:href="#DejaVuSans-6f" transform="translate(1745.695312 0)"/>
       <use xlink:href="#DejaVuSans-6e" transform="translate(1806.876953 0)"/>
       <use xlink:href="#DejaVuSans-2c" transform="translate(1870.255859 0)"/>
       <use xlink:href="#DejaVuSans-20" transform="translate(1902.042969 0)"/>
       <use xlink:href="#DejaVuSans-41" transform="translate(1933.830078 0)"/>
       <use xlink:href="#DejaVuSans-6e" transform="translate(2002.238281 0)"/>
       <use xlink:href="#DejaVuSans-78" transform="translate(2065.617188 0)"/>
       <use xlink:href="#DejaVuSans-69" transform="translate(2124.796875 0)"/>
       <use xlink:href="#DejaVuSans-65" transform="translate(2152.580078 0)"/>
       <use xlink:href="#DejaVuSans-74" transform="translate(2214.103516 0)"/>
       <use xlink:href="#DejaVuSans-79" transform="translate(2253.3125 0)"/>
       <use xlink:href="#DejaVuSans-20" transform="translate(2312.492188 0)"/>
       <use xlink:href="#DejaVuSans-28" transform="translate(2344.279297 0)"/>
       <use xlink:href="#DejaVuSans-4a" transform="translate(2383.292969 0)"/>
       <use xlink:href="#DejaVuSans-41" transform="translate(2411.035156 0)"/>
       <use xlink:href="#DejaVuSans-4d" transform="translate(2479.443359 0)"/>
       <use xlink:href="#DejaVuSans-41" transform="translate(2565.722656 0)"/>
       <use xlink:href="#DejaVuSans-20" transform="translate(2634.130859 0)"/>
       <use xlink:href="#DejaVuSans-4e" transform="translate(2665.917969 0)"/>
       <use xlink:href="#DejaVuSans-65" transform="translate(2740.722656 0)"/>
       <use xlink:href="#DejaVuSans-74" transform="translate(2802.246094 0)"/>
       <use xlink:href="#DejaVuSans-77" transform="translate(2841.455078 0)"/>
       <use xlink:href="#DejaVuSans-2e" transform="translate(2914.117188 0)"/>
       <use xlink:href="#DejaVuSans-20" transform="translate(2945.904297 0)"/>
       <use xlink:href="#DejaVuSans-4f" transform="translate(2977.691406 0)"/>
       <use xlink:href="#DejaVuSans-70" transform="translate(3056.402344 0)"/>
       <use xlink:href="#DejaVuSans-65" transform="translate(3119.878906 0)"/>
       <use xlink:href="#DejaVuSans-6e" transform="translate(3181.402344 0)"/>
       <use xlink:href="#DejaVuSans-2c" transform="translate(3244.78125 0)"/>
       <use xlink:href="#DejaVuSans-20" transform="translate(3276.568359 0)"/>
       <use xlink:href="#DejaVuSans-32" transform="translate(3308.355469 0)"/>
       <use xlink:href="#DejaVuSans-30" transform="translate(3371.978516 0)"/>
       <use xlink:href="#DejaVuSans-32" transform="translate(3435.601562 0)"/>
       <use xlink:href="#DejaVuSans-35" transform="translate(3499.224609 0)"/>
       <use xlink:href="#DejaVuSans-29" transform="translate(3562.847656 0)"/>
      </g>
     </g>
    </g>
    <g id="ytick_3">
     <g id="line2d_19">
      <g>
       <use xlink:href="#m4db1af6253" x="410.40625" y="151.543636" style="stroke: #000000; stroke-width: 0.8"/>
      </g>
     </g>
     <g id="text_9">
      <!-- Multicomponent structured exercise (J. Exerc. Sci. Fit., 2025) -->
      <g transform="translate(71.037812 155.722777) scale(0.11 -0.11)">
       <use xlink:href="#DejaVuSans-4d"/>
       <use xlink:href="#DejaVuSans-75" transform="translate(86.279297 0)"/>
       <use xlink:href="#DejaVuSans-6c" transform="translate(149.658203 0)"/>
       <use xlink:href="#DejaVuSans-74" transform="translate(177.441406 0)"/>
       <use xlink:href="#DejaVuSans-69" transform="translate(216.650391 0)"/>
       <use xlink:href="#DejaVuSans-63" transform="translate(244.433594 0)"/>
       <use xlink:href="#DejaVuSans-6f" transform="translate(299.414062 0)"/>
       <use xlink:href="#DejaVuSans-6d" transform="translate(360.595703 0)"/>
       <use xlink:href="#DejaVuSans-70" transform="translate(458.007812 0)"/>
       <use xlink:href="#DejaVuSans-6f" transform="translate(521.484375 0)"/>
       <use xlink:href="#DejaVuSans-6e" transform="translate(582.666016 0)"/>
       <use xlink:href="#DejaVuSans-65" transform="translate(646.044922 0)"/>
       <use xlink:href="#DejaVuSans-6e" transform="translate(707.568359 0)"/>
       <use xlink:href="#DejaVuSans-74" transform="translate(770.947266 0)"/>
       <use xlink:href="#DejaVuSans-20" transform="translate(810.15625 0)"/>
       <use xlink:href="#DejaVuSans-73" transform="translate(841.943359 0)"/>
       <use xlink:href="#DejaVuSans-74" transform="translate(894.042969 0)"/>
       <use xlink:href="#DejaVuSans-72" transform="translate(933.251953 0)"/>
       <use xlink:href="#DejaVuSans-75" transform="translate(974.365234 0)"/>
       <use xlink:href="#DejaVuSans-63" transform="translate(1037.744141 0)"/>
       <use xlink:href="#DejaVuSans-74" transform="translate(1092.724609 0)"/>
       <use xlink:href="#DejaVuSans-75" transform="translate(1131.933594 0)"/>
       <use xlink:href="#DejaVuSans-72" transform="translate(1195.3125 0)"/>
       <use xlink:href="#DejaVuSans-65" transform="translate(1234.175781 0)"/>
       <use xlink:href="#DejaVuSans-64" transform="translate(1295.699219 0)"/>
       <use xlink:href="#DejaVuSans-20" transform="translate(1359.175781 0)"/>
       <use xlink:href="#DejaVuSans-65" transform="translate(1390.962891 0)"/>
       <use xlink:href="#DejaVuSans-78" transform="translate(1450.736328 0)"/>
       <use xlink:href="#DejaVuSans-65" transform="translate(1506.791016 0)"/>
       <use xlink:href="#DejaVuSans-72" transform="translate(1568.314453 0)"/>
       <use xlink:href="#DejaVuSans-63" transform="translate(1607.177734 0)"/>
       <use xlink:href="#DejaVuSans-69" transform="translate(1662.158203 0)"/>
       <use xlink:href="#DejaVuSans-73" transform="translate(1689.941406 0)"/>
       <use xlink:href="#DejaVuSans-65" transform="translate(1742.041016 0)"/>
       <use xlink:href="#DejaVuSans-20" transform="translate(1803.564453 0)"/>
       <use xlink:href="#DejaVuSans-28" transform="translate(1835.351562 0)"/>
       <use xlink:href="#DejaVuSans-4a" transform="translate(1874.365234 0)"/>
       <use xlink:href="#DejaVuSans-2e" transform="translate(1903.857422 0)"/>
       <use xlink:href="#DejaVuSans-20" transform="translate(1935.644531 0)"/>
       <use xlink:href="#DejaVuSans-45" transform="translate(1967.431641 0)"/>
       <use xlink:href="#DejaVuSans-78" transform="translate(2030.615234 0)"/>
       <use xlink:href="#DejaVuSans-65" transform="translate(2086.669922 0)"/>
       <use xlink:href="#DejaVuSans-72" transform="translate(2148.193359 0)"/>
       <use xlink:href="#DejaVuSans-63" transform="translate(2187.056641 0)"/>
       <use xlink:href="#DejaVuSans-2e" transform="translate(2242.037109 0)"/>
       <use xlink:href="#DejaVuSans-20" transform="translate(2273.824219 0)"/>
       <use xlink:href="#DejaVuSans-53" transform="translate(2305.611328 0)"/>
       <use xlink:href="#DejaVuSans-63" transform="translate(2369.087891 0)"/>
       <use xlink:href="#DejaVuSans-69" transform="translate(2424.068359 0)"/>
       <use xlink:href="#DejaVuSans-2e" transform="translate(2451.851562 0)"/>
       <use xlink:href="#DejaVuSans-20" transform="translate(2483.638672 0)"/>
       <use xlink:href="#DejaVuSans-46" transform="translate(2515.425781 0)"/>
       <use xlink:href="#DejaVuSans-69" transform="translate(2565.695312 0)"/>
       <use xlink:href="#DejaVuSans-74" transform="translate(2593.478516 0)"/>
       <use xlink:href="#DejaVuSans-2e" transform="translate(2632.6875 0)"/>
       <use xlink:href="#DejaVuSans-2c" transform="translate(2664.474609 0)"/>
       <use xlink:href="#DejaVuSans-20" transform="translate(2696.261719 0)"/>
       <use xlink:href="#DejaVuSans-32" transform="translate(2728.048828 0)"/>
       <use xlink:href="#DejaVuSans-30" transform="translate(2791.671875 0)"/>
       <use xlink:href="#DejaVuSans-32" transform="translate(2855.294922 0)"/>
       <use xlink:href="#DejaVuSans-35" transform="translate(2918.917969 0)"/>
       <use xlink:href="#DejaVuSans-29" transform="translate(2982.541016 0)"/>
      </g>
     </g>
    </g>
    <g id="ytick_4">
     <g id="line2d_20">
      <g>
       <use xlink:href="#m4db1af6253" x="410.40625" y="215.696364" style="stroke: #000000; stroke-width: 0.8"/>
      </g>
     </g>
     <g id="text_10">
      <!-- Exercise with music in frail older adults (BMJ Open, 2025) -->
      <g transform="translate(87.455312 219.875504) scale(0.11 -0.11)">
       <defs>
        <path id="DejaVuSans-42" d="M 1259 2228 
L 1259 519 
L 2272 519 
Q 2781 519 3026 730 
Q 3272 941 3272 1375 
Q 3272 1813 3026 2020 
Q 2781 2228 2272 2228 
L 1259 2228 
z
M 1259 4147 
L 1259 2741 
L 2194 2741 
Q 2656 2741 2882 2914 
Q 3109 3088 3109 3444 
Q 3109 3797 2882 3972 
Q 2656 4147 2194 4147 
L 1259 4147 
z
M 628 4666 
L 2241 4666 
Q 2963 4666 3353 4366 
Q 3744 4066 3744 3513 
Q 3744 3084 3544 2831 
Q 3344 2578 2956 2516 
Q 3422 2416 3680 2098 
Q 3938 1781 3938 1306 
Q 3938 681 3513 340 
Q 3088 0 2303 0 
L 628 0 
L 628 4666 
z
" transform="scale(0.015625)"/>
       </defs>
       <use xlink:href="#DejaVuSans-45"/>
       <use xlink:href="#DejaVuSans-78" transform="translate(63.183594 0)"/>
       <use xlink:href="#DejaVuSans-65" transform="translate(119.238281 0)"/>
       <use xlink:href="#DejaVuSans-72" transform="translate(180.761719 0)"/>
       <use xlink:href="#DejaVuSans-63" transform="translate(219.625 0)"/>
       <use xlink:href="#DejaVuSans-69" transform="translate(274.605469 0)"/>
       <use xlink:href="#DejaVuSans-73" transform="translate(302.388672 0)"/>
       <use xlink:href="#DejaVuSans-65" transform="translate(354.488281 0)"/>
       <use xlink:href="#DejaVuSans-20" transform="translate(416.011719 0)"/>
       <use xlink:href="#DejaVuSans-77" transform="translate(447.798828 0)"/>
       <use xlink:href="#DejaVuSans-69" transform="translate(529.585938 0)"/>
       <use xlink:href="#DejaVuSans-74" transform="translate(557.369141 0)"/>
       <use xlink:href="#DejaVuSans-68" transform="translate(596.578125 0)"/>
       <use xlink:href="#DejaVuSans-20" transform="translate(659.957031 0)"/>
       <use xlink:href="#DejaVuSans-6d" transform="translate(691.744141 0)"/>
       <use xlink:href="#DejaVuSans-75" transform="translate(789.15625 0)"/>
       <use xlink:href="#DejaVuSans-73" transform="translate(852.535156 0)"/>
       <use xlink:href="#DejaVuSans-69" transform="translate(904.634766 0)"/>
       <use xlink:href="#DejaVuSans-63" transform="translate(932.417969 0)"/>
       <use xlink:href="#DejaVuSans-20" transform="translate(987.398438 0)"/>
       <use xlink:href="#DejaVuSans-69" transform="translate(1019.185547 0)"/>
       <use xlink:href="#DejaVuSans-6e" transform="translate(1046.96875 0)"/>
       <use xlink:href="#DejaVuSans-20" transform="translate(1110.347656 0)"/>
       <use xlink:href="#DejaVuSans-66" transform="translate(1142.134766 0)"/>
       <use xlink:href="#DejaVuSans-72" transform="translate(1177.339844 0)"/>
       <use xlink:href="#DejaVuSans-61" transform="translate(1218.453125 0)"/>
       <use xlink:href="#DejaVuSans-69" transform="translate(1279.732422 0)"/>
       <use xlink:href="#DejaVuSans-6c" transform="translate(1307.515625 0)"/>
       <use xlink:href="#DejaVuSans-20" transform="translate(1335.298828 0)"/>
       <use xlink:href="#DejaVuSans-6f" transform="translate(1367.085938 0)"/>
       <use xlink:href="#DejaVuSans-6c" transform="translate(1428.267578 0)"/>
       <use xlink:href="#DejaVuSans-64" transform="translate(1456.050781 0)"/>
       <use xlink:href="#DejaVuSans-65" transform="translate(1519.527344 0)"/>
       <use xlink:href="#DejaVuSans-72" transform="translate(1581.050781 0)"/>
       <use xlink:href="#DejaVuSans-20" transform="translate(1622.164062 0)"/>
       <use xlink:href="#DejaVuSans-61" transform="translate(1653.951172 0)"/>
       <use xlink:href="#DejaVuSans-64" transform="translate(1715.230469 0)"/>
       <use xlink:href="#DejaVuSans-75" transform="translate(1778.707031 0)"/>
       <use xlink:href="#DejaVuSans-6c" transform="translate(1842.085938 0)"/>
       <use xlink:href="#DejaVuSans-74" transform="translate(1869.869141 0)"/>
       <use xlink:href="#DejaVuSans-73" transform="translate(1909.078125 0)"/>
       <use xlink:href="#DejaVuSans-20" transform="translate(1961.177734 0)"/>
       <use xlink:href="#DejaVuSans-28" transform="translate(1992.964844 0)"/>
       <use xlink:href="#DejaVuSans-42" transform="translate(2031.978516 0)"/>
       <use xlink:href="#DejaVuSans-4d" transform="translate(2100.582031 0)"/>
       <use xlink:href="#DejaVuSans-4a" transform="translate(2186.861328 0)"/>
       <use xlink:href="#DejaVuSans-20" transform="translate(2216.353516 0)"/>
       <use xlink:href="#DejaVuSans-4f" transform="translate(2248.140625 0)"/>
       <use xlink:href="#DejaVuSans-70" transform="translate(2326.851562 0)"/>
       <use xlink:href="#DejaVuSans-65" transform="translate(2390.328125 0)"/>
       <use xlink:href="#DejaVuSans-6e" transform="translate(2451.851562 0)"/>
       <use xlink:href="#DejaVuSans-2c" transform="translate(2515.230469 0)"/>
       <use xlink:href="#DejaVuSans-20" transform="translate(2547.017578 0)"/>
       <use xlink:href="#DejaVuSans-32" transform="translate(2578.804688 0)"/>
       <use xlink:href="#DejaVuSans-30" transform="translate(2642.427734 0)"/>
       <use xlink:href="#DejaVuSans-32" transform="translate(2706.050781 0)"/>
       <use xlink:href="#DejaVuSans-35" transform="translate(2769.673828 0)"/>
       <use xlink:href="#DejaVuSans-29" transform="translate(2833.296875 0)"/>
      </g>
     </g>
    </g>
    <g id="ytick_5">
     <g id="line2d_21">
      <g>
       <use xlink:href="#m4db1af6253" x="410.40625" y="279.849091" style="stroke: #000000; stroke-width: 0.8"/>
      </g>
     </g>
     <g id="text_11">
      <!-- Mind-body exercise in elderly COPD (Complement. Ther. Med., 2025) -->
      <g transform="translate(24.755313 284.028232) scale(0.11 -0.11)">
       <defs>
        <path id="DejaVuSans-2d" d="M 313 2009 
L 1997 2009 
L 1997 1497 
L 313 1497 
L 313 2009 
z
" transform="scale(0.015625)"/>
        <path id="DejaVuSans-62" d="M 3116 1747 
Q 3116 2381 2855 2742 
Q 2594 3103 2138 3103 
Q 1681 3103 1420 2742 
Q 1159 2381 1159 1747 
Q 1159 1113 1420 752 
Q 1681 391 2138 391 
Q 2594 391 2855 752 
Q 3116 1113 3116 1747 
z
M 1159 2969 
Q 1341 3281 1617 3432 
Q 1894 3584 2278 3584 
Q 2916 3584 3314 3078 
Q 3713 2572 3713 1747 
Q 3713 922 3314 415 
Q 2916 -91 2278 -91 
Q 1894 -91 1617 61 
Q 1341 213 1159 525 
L 1159 0 
L 581 0 
L 581 4863 
L 1159 4863 
L 1159 2969 
z
" transform="scale(0.015625)"/>
        <path id="DejaVuSans-43" d="M 4122 4306 
L 4122 3641 
Q 3803 3938 3442 4084 
Q 3081 4231 2675 4231 
Q 1875 4231 1450 3742 
Q 1025 3253 1025 2328 
Q 1025 1406 1450 917 
Q 1875 428 2675 428 
Q 3081 428 3442 575 
Q 3803 722 4122 1019 
L 4122 359 
Q 3791 134 3420 21 
Q 3050 -91 2638 -91 
Q 1578 -91 968 557 
Q 359 1206 359 2328 
Q 359 3453 968 4101 
Q 1578 4750 2638 4750 
Q 3056 4750 3426 4639 
Q 3797 4528 4122 4306 
z
" transform="scale(0.015625)"/>
        <path id="DejaVuSans-54" d="M -19 4666 
L 3928 4666 
L 3928 4134 
L 2272 4134 
L 2272 0 
L 1638 0 
L 1638 4134 
L -19 4134 
L -19 4666 
z
" transform="scale(0.015625)"/>
       </defs>
       <use xlink:href="#DejaVuSans-4d"/>
       <use xlink:href="#DejaVuSans-69" transform="translate(86.279297 0)"/>
       <use xlink:href="#DejaVuSans-6e" transform="translate(114.0625 0)"/>
       <use xlink:href="#DejaVuSans-64" transform="translate(177.441406 0)"/>
       <use xlink:href="#DejaVuSans-2d" transform="translate(240.917969 0)"/>
       <use xlink:href="#DejaVuSans-62" transform="translate(277.001953 0)"/>
       <use xlink:href="#DejaVuSans-6f" transform="translate(340.478516 0)"/>
       <use xlink:href="#DejaVuSans-64" transform="translate(401.660156 0)"/>
       <use xlink:href="#DejaVuSans-79" transform="translate(465.136719 0)"/>
       <use xlink:href="#DejaVuSans-20" transform="translate(524.316406 0)"/>
       <use xlink:href="#DejaVuSans-65" transform="translate(556.103516 0)"/>
       <use xlink:href="#DejaVuSans-78" transform="translate(615.876953 0)"/>
       <use xlink:href="#DejaVuSans-65" transform="translate(671.931641 0)"/>
       <use xlink:href="#DejaVuSans-72" transform="translate(733.455078 0)"/>
       <use xlink:href="#DejaVuSans-63" transform="translate(772.318359 0)"/>
       <use xlink:href="#DejaVuSans-69" transform="translate(827.298828 0)"/>
       <use xlink:href="#DejaVuSans-73" transform="translate(855.082031 0)"/>
       <use xlink:href="#DejaVuSans-65" transform="translate(907.181641 0)"/>
       <use xlink:href="#DejaVuSans-20" transform="translate(968.705078 0)"/>
       <use xlink:href="#DejaVuSans-69" transform="translate(1000.492188 0)"/>
       <use xlink:href="#DejaVuSans-6e" transform="translate(1028.275391 0)"/>
       <use xlink:href="#DejaVuSans-20" transform="translate(1091.654297 0)"/>
       <use xlink:href="#DejaVuSans-65" transform="translate(1123.441406 0)"/>
       <use xlink:href="#DejaVuSans-6c" transform="translate(1184.964844 0)"/>
       <use xlink:href="#DejaVuSans-64" transform="translate(1212.748047 0)"/>
       <use xlink:href="#DejaVuSans-65" transform="translate(1276.224609 0)"/>
       <use xlink:href="#DejaVuSans-72" transform="translate(1337.748047 0)"/>
       <use xlink:href="#DejaVuSans-6c" transform="translate(1378.861328 0)"/>
       <use xlink:href="#DejaVuSans-79" transform="translate(1406.644531 0)"/>
       <use xlink:href="#DejaVuSans-20" transform="translate(1465.824219 0)"/>
       <use xlink:href="#DejaVuSans-43" transform="translate(1497.611328 0)"/>
       <use xlink:href="#DejaVuSans-4f" transform="translate(1567.435547 0)"/>
       <use xlink:href="#DejaVuSans-50" transform="translate(1646.146484 0)"/>
       <use xlink:href="#DejaVuSans-44" transform="translate(1706.449219 0)"/>
       <use xlink:href="#DejaVuSans-20" transform="translate(1783.451172 0)"/>
       <use xlink:href="#DejaVuSans-28" transform="translate(1815.238281 0)"/>
       <use xlink:href="#DejaVuSans-43" transform="translate(1854.251953 0)"/>
       <use xlink:href="#DejaVuSans-6f" transform="translate(1924.076172 0)"/>
       <use xlink:href="#DejaVuSans-6d" transform="translate(1985.257812 0)"/>
       <use xlink:href="#DejaVuSans-70" transform="translate(2082.669922 0)"/>
       <use xlink:href="#DejaVuSans-6c" transform="translate(2146.146484 0)"/>
       <use xlink:href="#DejaVuSans-65" transform="translate(2173.929688 0)"/>
       <use xlink:href="#DejaVuSans-6d" transform="translate(2235.453125 0)"/>
       <use xlink:href="#DejaVuSans-65" transform="translate(2332.865234 0)"/>
       <use xlink:href="#DejaVuSans-6e" transform="translate(2394.388672 0)"/>
       <use xlink:href="#DejaVuSans-74" transform="translate(2457.767578 0)"/>
       <use xlink:href="#DejaVuSans-2e" transform="translate(2496.976562 0)"/>
       <use xlink:href="#DejaVuSans-20" transform="translate(2528.763672 0)"/>
       <use xlink:href="#DejaVuSans-54" transform="translate(2560.550781 0)"/>
       <use xlink:href="#DejaVuSans-68" transform="translate(2621.634766 0)"/>
       <use xlink:href="#DejaVuSans-65" transform="translate(2685.013672 0)"/>
       <use xlink:href="#DejaVuSans-72" transform="translate(2746.537109 0)"/>
       <use xlink:href="#DejaVuSans-2e" transform="translate(2778.525391 0)"/>
       <use xlink:href="#DejaVuSans-20" transform="translate(2810.3125 0)"/>
       <use xlink:href="#DejaVuSans-4d" transform="translate(2842.099609 0)"/>
       <use xlink:href="#DejaVuSans-65" transform="translate(2928.378906 0)"/>
       <use xlink:href="#DejaVuSans-64" transform="translate(2989.902344 0)"/>
       <use xlink:href="#DejaVuSans-2e" transform="translate(3053.378906 0)"/>
       <use xlink:href="#DejaVuSans-2c" transform="translate(3085.166016 0)"/>
       <use xlink:href="#DejaVuSans-20" transform="translate(3116.953125 0)"/>
       <use xlink:href="#DejaVuSans-32" transform="translate(3148.740234 0)"/>
       <use xlink:href="#DejaVuSans-30" transform="translate(3212.363281 0)"/>
       <use xlink:href="#DejaVuSans-32" transform="translate(3275.986328 0)"/>
       <use xlink:href="#DejaVuSans-35" transform="translate(3339.609375 0)"/>
       <use xlink:href="#DejaVuSans-29" transform="translate(3403.232422 0)"/>
      </g>
     </g>
    </g>
    <g id="ytick_6">
     <g id="line2d_22">
      <g>
       <use xlink:href="#m4db1af6253" x="410.40625" y="344.001818" style="stroke: #000000; stroke-width: 0.8"/>
      </g>
     </g>
     <g id="text_12">
      <!-- Abstract-level (this study) -->
      <g transform="translate(260.951094 348.180959) scale(0.11 -0.11)">
       <use xlink:href="#DejaVuSans-41"/>
       <use xlink:href="#DejaVuSans-62" transform="translate(68.408203 0)"/>
       <use xlink:href="#DejaVuSans-73" transform="translate(131.884766 0)"/>
       <use xlink:href="#DejaVuSans-74" transform="translate(183.984375 0)"/>
       <use xlink:href="#DejaVuSans-72" transform="translate(223.193359 0)"/>
       <use xlink:href="#DejaVuSans-61" transform="translate(264.306641 0)"/>
       <use xlink:href="#DejaVuSans-63" transform="translate(325.585938 0)"/>
       <use xlink:href="#DejaVuSans-74" transform="translate(380.566406 0)"/>
       <use xlink:href="#DejaVuSans-2d" transform="translate(419.775391 0)"/>
       <use xlink:href="#DejaVuSans-6c" transform="translate(455.859375 0)"/>
       <use xlink:href="#DejaVuSans-65" transform="translate(483.642578 0)"/>
       <use xlink:href="#DejaVuSans-76" transform="translate(545.166016 0)"/>
       <use xlink:href="#DejaVuSans-65" transform="translate(604.345703 0)"/>
       <use xlink:href="#DejaVuSans-6c" transform="translate(665.869141 0)"/>
       <use xlink:href="#DejaVuSans-20" transform="translate(693.652344 0)"/>
       <use xlink:href="#DejaVuSans-28" transform="translate(725.439453 0)"/>
       <use xlink:href="#DejaVuSans-74" transform="translate(764.453125 0)"/>
       <use xlink:href="#DejaVuSans-68" transform="translate(803.662109 0)"/>
       <use xlink:href="#DejaVuSans-69" transform="translate(867.041016 0)"/>
       <use xlink:href="#DejaVuSans-73" transform="translate(894.824219 0)"/>
       <use xlink:href="#DejaVuSans-20" transform="translate(946.923828 0)"/>
       <use xlink:href="#DejaVuSans-73" transform="translate(978.710938 0)"/>
       <use xlink:href="#DejaVuSans-74" transform="translate(1030.810547 0)"/>
       <use xlink:href="#DejaVuSans-75" transform="translate(1070.019531 0)"/>
       <use xlink:href="#DejaVuSans-64" transform="translate(1133.398438 0)"/>
       <use xlink:href="#DejaVuSans-79" transform="translate(1196.875 0)"/>
       <use xlink:href="#DejaVuSans-29" transform="translate(1256.054688 0)"/>
      </g>
     </g>
    </g>
   </g>
   <g id="line2d_23">
    <defs>
     <path id="me6aaa2c4bd" d="M -5 5 
L 5 5 
L 5 -5 
L -5 -5 
z
" style="stroke: #718096; stroke-linejoin: miter"/>
    </defs>
    <g clip-path="url(#p25705d1569)">
     <use xlink:href="#me6aaa2c4bd" x="513.822635" y="23.238182" style="fill: #718096; stroke: #718096; stroke-linejoin: miter"/>
    </g>
   </g>
   <g id="line2d_24">
    <g clip-path="url(#p25705d1569)">
     <use xlink:href="#me6aaa2c4bd" x="544.425442" y="87.390909" style="fill: #718096; stroke: #718096; stroke-linejoin: miter"/>
    </g>
   </g>
   <g id="line2d_25">
    <g clip-path="url(#p25705d1569)">
     <use xlink:href="#me6aaa2c4bd" x="548.646519" y="151.543636" style="fill: #718096; stroke: #718096; stroke-linejoin: miter"/>
    </g>
   </g>
   <g id="line2d_26">
    <g clip-path="url(#p25705d1569)">
     <use xlink:href="#me6aaa2c4bd" x="558.143942" y="215.696364" style="fill: #718096; stroke: #718096; stroke-linejoin: miter"/>
    </g>
   </g>
   <g id="line2d_27">
    <g clip-path="url(#p25705d1569)">
     <use xlink:href="#me6aaa2c4bd" x="564.475558" y="279.849091" style="fill: #718096; stroke: #718096; stroke-linejoin: miter"/>
    </g>
   </g>
   <g id="patch_3">
    <path d="M 410.40625 360.04 
L 410.40625 7.2 
" style="fill: none; stroke: #000000; stroke-width: 0.8; stroke-linejoin: miter; stroke-linecap: square"/>
   </g>
   <g id="patch_4">
    <path d="M 410.40625 360.04 
L 684.77625 360.04 
" style="fill: none; stroke: #000000; stroke-width: 0.8; stroke-linejoin: miter; stroke-linecap: square"/>
   </g>
   <g id="line2d_28">
    <path d="M 504.778977 344.001818 
L 604.596894 344.001818 
" clip-path="url(#p25705d1569)" style="fill: none; stroke: #e53e3e; stroke-width: 3.5; stroke-linecap: square"/>
   </g>
   <g id="text_13">
    <!-- -0.82 [-1.19, -0.45] -->
    <g style="fill: #4a5568" transform="translate(556.033404 25.997557) scale(0.1 -0.1)">
     <defs>
      <path id="DejaVuSans-38" d="M 2034 2216 
Q 1584 2216 1326 1975 
Q 1069 1734 1069 1313 
Q 1069 891 1326 650 
Q 1584 409 2034 409 
Q 2484 409 2743 651 
Q 3003 894 3003 1313 
Q 3003 1734 2745 1975 
Q 2488 2216 2034 2216 
z
M 1403 2484 
Q 997 2584 770 2862 
Q 544 3141 544 3541 
Q 544 4100 942 4425 
Q 1341 4750 2034 4750 
Q 2731 4750 3128 4425 
Q 3525 4100 3525 3541 
Q 3525 3141 3298 2862 
Q 3072 2584 2669 2484 
Q 3125 2378 3379 2068 
Q 3634 1759 3634 1313 
Q 3634 634 3220 271 
Q 2806 -91 2034 -91 
Q 1263 -91 848 271 
Q 434 634 434 1313 
Q 434 1759 690 2068 
Q 947 2378 1403 2484 
z
M 1172 3481 
Q 1172 3119 1398 2916 
Q 1625 2713 2034 2713 
Q 2441 2713 2670 2916 
Q 2900 3119 2900 3481 
Q 2900 3844 2670 4047 
Q 2441 4250 2034 4250 
Q 1625 4250 1398 4047 
Q 1172 3844 1172 3481 
z
" transform="scale(0.015625)"/>
      <path id="DejaVuSans-5b" d="M 550 4863 
L 1875 4863 
L 1875 4416 
L 1125 4416 
L 1125 -397 
L 1875 -397 
L 1875 -844 
L 550 -844 
L 550 4863 
z
" transform="scale(0.015625)"/>
      <path id="DejaVuSans-39" d="M 703 97 
L 703 672 
Q 941 559 1184 500 
Q 1428 441 1663 441 
Q 2288 441 2617 861 
Q 2947 1281 2994 2138 
Q 2813 1869 2534 1725 
Q 2256 1581 1919 1581 
Q 1219 1581 811 2004 
Q 403 2428 403 3163 
Q 403 3881 828 4315 
Q 1253 4750 1959 4750 
Q 2769 4750 3195 4129 
Q 3622 3509 3622 2328 
Q 3622 1225 3098 567 
Q 2575 -91 1691 -91 
Q 1453 -91 1209 -44 
Q 966 3 703 97 
z
M 1959 2075 
Q 2384 2075 2632 2365 
Q 2881 2656 2881 3163 
Q 2881 3666 2632 3958 
Q 2384 4250 1959 4250 
Q 1534 4250 1286 3958 
Q 1038 3666 1038 3163 
Q 1038 2656 1286 2365 
Q 1534 2075 1959 2075 
z
" transform="scale(0.015625)"/>
      <path id="DejaVuSans-5d" d="M 1947 4863 
L 1947 -844 
L 622 -844 
L 622 -397 
L 1369 -397 
L 1369 4416 
L 622 4416 
L 622 4863 
L 1947 4863 
z
" transform="scale(0.015625)"/>
     </defs>
     <use xlink:href="#DejaVuSans-2d"/>
     <use xlink:href="#DejaVuSans-30" transform="translate(36.083984 0)"/>
     <use xlink:href="#DejaVuSans-2e" transform="translate(99.707031 0)"/>
     <use xlink:href="#DejaVuSans-38" transform="translate(131.494141 0)"/>
     <use xlink:href="#DejaVuSans-32" transform="translate(195.117188 0)"/>
     <use xlink:href="#DejaVuSans-20" transform="translate(258.740234 0)"/>
     <use xlink:href="#DejaVuSans-5b" transform="translate(290.527344 0)"/>
     <use xlink:href="#DejaVuSans-2d" transform="translate(329.541016 0)"/>
     <use xlink:href="#DejaVuSans-31" transform="translate(365.625 0)"/>
     <use xlink:href="#DejaVuSans-2e" transform="translate(429.248047 0)"/>
     <use xlink:href="#DejaVuSans-31" transform="translate(461.035156 0)"/>
     <use xlink:href="#DejaVuSans-39" transform="translate(524.658203 0)"/>
     <use xlink:href="#DejaVuSans-2c" transform="translate(588.28125 0)"/>
     <use xlink:href="#DejaVuSans-20" transform="translate(620.068359 0)"/>
     <use xlink:href="#DejaVuSans-2d" transform="translate(651.855469 0)"/>
     <use xlink:href="#DejaVuSans-30" transform="translate(687.939453 0)"/>
     <use xlink:href="#DejaVuSans-2e" transform="translate(751.5625 0)"/>
     <use xlink:href="#DejaVuSans-34" transform="translate(783.349609 0)"/>
     <use xlink:href="#DejaVuSans-35" transform="translate(846.972656 0)"/>
     <use xlink:href="#DejaVuSans-5d" transform="translate(910.595703 0)"/>
    </g>
   </g>
   <g id="text_14">
    <!-- -0.53 [-0.79, -0.28] -->
    <g style="fill: #4a5568" transform="translate(573.972981 90.150284) scale(0.1 -0.1)">
     <defs>
      <path id="DejaVuSans-33" d="M 2597 2516 
Q 3050 2419 3304 2112 
Q 3559 1806 3559 1356 
Q 3559 666 3084 287 
Q 2609 -91 1734 -91 
Q 1441 -91 1130 -33 
Q 819 25 488 141 
L 488 750 
Q 750 597 1062 519 
Q 1375 441 1716 441 
Q 2309 441 2620 675 
Q 2931 909 2931 1356 
Q 2931 1769 2642 2001 
Q 2353 2234 1838 2234 
L 1294 2234 
L 1294 2753 
L 1863 2753 
Q 2328 2753 2575 2939 
Q 2822 3125 2822 3475 
Q 2822 3834 2567 4026 
Q 2313 4219 1838 4219 
Q 1578 4219 1281 4162 
Q 984 4106 628 3988 
L 628 4550 
Q 988 4650 1302 4700 
Q 1616 4750 1894 4750 
Q 2613 4750 3031 4423 
Q 3450 4097 3450 3541 
Q 3450 3153 3228 2886 
Q 3006 2619 2597 2516 
z
" transform="scale(0.015625)"/>
      <path id="DejaVuSans-37" d="M 525 4666 
L 3525 4666 
L 3525 4397 
L 1831 0 
L 1172 0 
L 2766 4134 
L 525 4134 
L 525 4666 
z
" transform="scale(0.015625)"/>
     </defs>
     <use xlink:href="#DejaVuSans-2d"/>
     <use xlink:href="#DejaVuSans-30" transform="translate(36.083984 0)"/>
     <use xlink:href="#DejaVuSans-2e" transform="translate(99.707031 0)"/>
     <use xlink:href="#DejaVuSans-35" transform="translate(131.494141 0)"/>
     <use xlink:href="#DejaVuSans-33" transform="translate(195.117188 0)"/>
     <use xlink:href="#DejaVuSans-20" transform="translate(258.740234 0)"/>
     <use xlink:href="#DejaVuSans-5b" transform="translate(290.527344 0)"/>
     <use xlink:href="#DejaVuSans-2d" transform="translate(329.541016 0)"/>
     <use xlink:href="#DejaVuSans-30" transform="translate(365.625 0)"/>
     <use xlink:href="#DejaVuSans-2e" transform="translate(429.248047 0)"/>
     <use xlink:href="#DejaVuSans-37" transform="translate(461.035156 0)"/>
     <use xlink:href="#DejaVuSans-39" transform="translate(524.658203 0)"/>
     <use xlink:href="#DejaVuSans-2c" transform="translate(588.28125 0)"/>
     <use xlink:href="#DejaVuSans-20" transform="translate(620.068359 0)"/>
     <use xlink:href="#DejaVuSans-2d" transform="translate(651.855469 0)"/>
     <use xlink:href="#DejaVuSans-30" transform="translate(687.939453 0)"/>
     <use xlink:href="#DejaVuSans-2e" transform="translate(751.5625 0)"/>
     <use xlink:href="#DejaVuSans-32" transform="translate(783.349609 0)"/>
     <use xlink:href="#DejaVuSans-38" transform="translate(846.972656 0)"/>
     <use xlink:href="#DejaVuSans-5d" transform="translate(910.595703 0)"/>
    </g>
   </g>
   <g id="text_15">
    <!-- -0.49 [-0.84, -0.14] -->
    <g style="fill: #4a5568" transform="translate(588.74675 154.303011) scale(0.1 -0.1)">
     <use xlink:href="#DejaVuSans-2d"/>
     <use xlink:href="#DejaVuSans-30" transform="translate(36.083984 0)"/>
     <use xlink:href="#DejaVuSans-2e" transform="translate(99.707031 0)"/>
     <use xlink:href="#DejaVuSans-34" transform="translate(131.494141 0)"/>
     <use xlink:href="#DejaVuSans-39" transform="translate(195.117188 0)"/>
     <use xlink:href="#DejaVuSans-20" transform="translate(258.740234 0)"/>
     <use xlink:href="#DejaVuSans-5b" transform="translate(290.527344 0)"/>
     <use xlink:href="#DejaVuSans-2d" transform="translate(329.541016 0)"/>
     <use xlink:href="#DejaVuSans-30" transform="translate(365.625 0)"/>
     <use xlink:href="#DejaVuSans-2e" transform="translate(429.248047 0)"/>
     <use xlink:href="#DejaVuSans-38" transform="translate(461.035156 0)"/>
     <use xlink:href="#DejaVuSans-34" transform="translate(524.658203 0)"/>
     <use xlink:href="#DejaVuSans-2c" transform="translate(588.28125 0)"/>
     <use xlink:href="#DejaVuSans-20" transform="translate(620.068359 0)"/>
     <use xlink:href="#DejaVuSans-2d" transform="translate(651.855469 0)"/>
     <use xlink:href="#DejaVuSans-30" transform="translate(687.939453 0)"/>
     <use xlink:href="#DejaVuSans-2e" transform="translate(751.5625 0)"/>
     <use xlink:href="#DejaVuSans-31" transform="translate(783.349609 0)"/>
     <use xlink:href="#DejaVuSans-34" transform="translate(846.972656 0)"/>
     <use xlink:href="#DejaVuSans-5d" transform="translate(910.595703 0)"/>
    </g>
   </g>
   <g id="text_16">
    <!-- -0.40 [-0.65, -0.15] -->
    <g style="fill: #4a5568" transform="translate(587.691481 218.455739) scale(0.1 -0.1)">
     <defs>
      <path id="DejaVuSans-36" d="M 2113 2584 
Q 1688 2584 1439 2293 
Q 1191 2003 1191 1497 
Q 1191 994 1439 701 
Q 1688 409 2113 409 
Q 2538 409 2786 701 
Q 3034 994 3034 1497 
Q 3034 2003 2786 2293 
Q 2538 2584 2113 2584 
z
M 3366 4563 
L 3366 3988 
Q 3128 4100 2886 4159 
Q 2644 4219 2406 4219 
Q 1781 4219 1451 3797 
Q 1122 3375 1075 2522 
Q 1259 2794 1537 2939 
Q 1816 3084 2150 3084 
Q 2853 3084 3261 2657 
Q 3669 2231 3669 1497 
Q 3669 778 3244 343 
Q 2819 -91 2113 -91 
Q 1303 -91 875 529 
Q 447 1150 447 2328 
Q 447 3434 972 4092 
Q 1497 4750 2381 4750 
Q 2619 4750 2861 4703 
Q 3103 4656 3366 4563 
z
" transform="scale(0.015625)"/>
     </defs>
     <use xlink:href="#DejaVuSans-2d"/>
     <use xlink:href="#DejaVuSans-30" transform="translate(36.083984 0)"/>
     <use xlink:href="#DejaVuSans-2e" transform="translate(99.707031 0)"/>
     <use xlink:href="#DejaVuSans-34" transform="translate(131.494141 0)"/>
     <use xlink:href="#DejaVuSans-30" transform="translate(195.117188 0)"/>
     <use xlink:href="#DejaVuSans-20" transform="translate(258.740234 0)"/>
     <use xlink:href="#DejaVuSans-5b" transform="translate(290.527344 0)"/>
     <use xlink:href="#DejaVuSans-2d" transform="translate(329.541016 0)"/>
     <use xlink:href="#DejaVuSans-30" transform="translate(365.625 0)"/>
     <use xlink:href="#DejaVuSans-2e" transform="translate(429.248047 0)"/>
     <use xlink:href="#DejaVuSans-36" transform="translate(461.035156 0)"/>
     <use xlink:href="#DejaVuSans-35" transform="translate(524.658203 0)"/>
     <use xlink:href="#DejaVuSans-2c" transform="translate(588.28125 0)"/>
     <use xlink:href="#DejaVuSans-20" transform="translate(620.068359 0)"/>
     <use xlink:href="#DejaVuSans-2d" transform="translate(651.855469 0)"/>
     <use xlink:href="#DejaVuSans-30" transform="translate(687.939453 0)"/>
     <use xlink:href="#DejaVuSans-2e" transform="translate(751.5625 0)"/>
     <use xlink:href="#DejaVuSans-31" transform="translate(783.349609 0)"/>
     <use xlink:href="#DejaVuSans-35" transform="translate(846.972656 0)"/>
     <use xlink:href="#DejaVuSans-5d" transform="translate(910.595703 0)"/>
    </g>
   </g>
   <g id="text_17">
    <!-- -0.34 [-0.54, -0.14] -->
    <g style="fill: #4a5568" transform="translate(588.74675 282.608466) scale(0.1 -0.1)">
     <use xlink:href="#DejaVuSans-2d"/>
     <use xlink:href="#DejaVuSans-30" transform="translate(36.083984 0)"/>
     <use xlink:href="#DejaVuSans-2e" transform="translate(99.707031 0)"/>
     <use xlink:href="#DejaVuSans-33" transform="translate(131.494141 0)"/>
     <use xlink:href="#DejaVuSans-34" transform="translate(195.117188 0)"/>
     <use xlink:href="#DejaVuSans-20" transform="translate(258.740234 0)"/>
     <use xlink:href="#DejaVuSans-5b" transform="translate(290.527344 0)"/>
     <use xlink:href="#DejaVuSans-2d" transform="translate(329.541016 0)"/>
     <use xlink:href="#DejaVuSans-30" transform="translate(365.625 0)"/>
     <use xlink:href="#DejaVuSans-2e" transform="translate(429.248047 0)"/>
     <use xlink:href="#DejaVuSans-35" transform="translate(461.035156 0)"/>
     <use xlink:href="#DejaVuSans-34" transform="translate(524.658203 0)"/>
     <use xlink:href="#DejaVuSans-2c" transform="translate(588.28125 0)"/>
     <use xlink:href="#DejaVuSans-20" transform="translate(620.068359 0)"/>
     <use xlink:href="#DejaVuSans-2d" transform="translate(651.855469 0)"/>
     <use xlink:href="#DejaVuSans-30" transform="translate(687.939453 0)"/>
     <use xlink:href="#DejaVuSans-2e" transform="translate(751.5625 0)"/>
     <use xlink:href="#DejaVuSans-31" transform="translate(783.349609 0)"/>
     <use xlink:href="#DejaVuSans-34" transform="translate(846.972656 0)"/>
     <use xlink:href="#DejaVuSans-5d" transform="translate(910.595703 0)"/>
    </g>
   </g>
   <g id="text_18">
    <!-- -0.43 [-0.91, 0.04] -->
    <g style="fill: #e53e3e" transform="translate(607.762702 346.761193) scale(0.1 -0.1)">
     <defs>
      <path id="DejaVuSans-Bold-2d" d="M 347 2297 
L 2309 2297 
L 2309 1388 
L 347 1388 
L 347 2297 
z
" transform="scale(0.015625)"/>
      <path id="DejaVuSans-Bold-30" d="M 2944 2338 
Q 2944 3213 2780 3570 
Q 2616 3928 2228 3928 
Q 1841 3928 1675 3570 
Q 1509 3213 1509 2338 
Q 1509 1453 1675 1090 
Q 1841 728 2228 728 
Q 2613 728 2778 1090 
Q 2944 1453 2944 2338 
z
M 4147 2328 
Q 4147 1169 3647 539 
Q 3147 -91 2228 -91 
Q 1306 -91 806 539 
Q 306 1169 306 2328 
Q 306 3491 806 4120 
Q 1306 4750 2228 4750 
Q 3147 4750 3647 4120 
Q 4147 3491 4147 2328 
z
" transform="scale(0.015625)"/>
      <path id="DejaVuSans-Bold-2e" d="M 653 1209 
L 1778 1209 
L 1778 0 
L 653 0 
L 653 1209 
z
" transform="scale(0.015625)"/>
      <path id="DejaVuSans-Bold-34" d="M 2356 3675 
L 1038 1722 
L 2356 1722 
L 2356 3675 
z
M 2156 4666 
L 3494 4666 
L 3494 1722 
L 4159 1722 
L 4159 850 
L 3494 850 
L 3494 0 
L 2356 0 
L 2356 850 
L 288 850 
L 288 1881 
L 2156 4666 
z
" transform="scale(0.015625)"/>
      <path id="DejaVuSans-Bold-33" d="M 2981 2516 
Q 3453 2394 3698 2092 
Q 3944 1791 3944 1325 
Q 3944 631 3412 270 
Q 2881 -91 1863 -91 
Q 1503 -91 1142 -33 
Q 781 25 428 141 
L 428 1069 
Q 766 900 1098 814 
Q 1431 728 1753 728 
Q 2231 728 2486 893 
Q 2741 1059 2741 1369 
Q 2741 1688 2480 1852 
Q 2219 2016 1709 2016 
L 1228 2016 
L 1228 2791 
L 1734 2791 
Q 2188 2791 2409 2933 
Q 2631 3075 2631 3366 
Q 2631 3634 2415 3781 
Q 2200 3928 1806 3928 
Q 1516 3928 1219 3862 
Q 922 3797 628 3669 
L 628 4550 
Q 984 4650 1334 4700 
Q 1684 4750 2022 4750 
Q 2931 4750 3382 4451 
Q 3834 4153 3834 3553 
Q 3834 3144 3618 2883 
Q 3403 2622 2981 2516 
z
" transform="scale(0.015625)"/>
      <path id="DejaVuSans-Bold-20" transform="scale(0.015625)"/>
      <path id="DejaVuSans-Bold-5b" d="M 550 4863 
L 2491 4863 
L 2491 4159 
L 1613 4159 
L 1613 -141 
L 2491 -141 
L 2491 -844 
L 550 -844 
L 550 4863 
z
" transform="scale(0.015625)"/>
      <path id="DejaVuSans-Bold-39" d="M 641 103 
L 641 966 
Q 928 831 1190 764 
Q 1453 697 1709 697 
Q 2247 697 2547 995 
Q 2847 1294 2900 1881 
Q 2688 1725 2447 1647 
Q 2206 1569 1925 1569 
Q 1209 1569 770 1986 
Q 331 2403 331 3084 
Q 331 3838 820 4291 
Q 1309 4744 2131 4744 
Q 3044 4744 3544 4128 
Q 4044 3513 4044 2388 
Q 4044 1231 3459 570 
Q 2875 -91 1856 -91 
Q 1528 -91 1228 -42 
Q 928 6 641 103 
z
M 2125 2350 
Q 2441 2350 2600 2554 
Q 2759 2759 2759 3169 
Q 2759 3575 2600 3781 
Q 2441 3988 2125 3988 
Q 1809 3988 1650 3781 
Q 1491 3575 1491 3169 
Q 1491 2759 1650 2554 
Q 1809 2350 2125 2350 
z
" transform="scale(0.015625)"/>
      <path id="DejaVuSans-Bold-31" d="M 750 831 
L 1813 831 
L 1813 3847 
L 722 3622 
L 722 4441 
L 1806 4666 
L 2950 4666 
L 2950 831 
L 4013 831 
L 4013 0 
L 750 0 
L 750 831 
z
" transform="scale(0.015625)"/>
      <path id="DejaVuSans-Bold-2c" d="M 653 1209 
L 1778 1209 
L 1778 256 
L 1006 -909 
L 341 -909 
L 653 256 
L 653 1209 
z
" transform="scale(0.015625)"/>
      <path id="DejaVuSans-Bold-5d" d="M 2375 -844 
L 434 -844 
L 434 -141 
L 1313 -141 
L 1313 4159 
L 434 4159 
L 434 4863 
L 2375 4863 
L 2375 -844 
z
" transform="scale(0.015625)"/>
     </defs>
     <use xlink:href="#DejaVuSans-Bold-2d"/>
     <use xlink:href="#DejaVuSans-Bold-30" transform="translate(41.503906 0)"/>
     <use xlink:href="#DejaVuSans-Bold-2e" transform="translate(111.083984 0)"/>
     <use xlink:href="#DejaVuSans-Bold-34" transform="translate(149.072266 0)"/>
     <use xlink:href="#DejaVuSans-Bold-33" transform="translate(218.652344 0)"/>
     <use xlink:href="#DejaVuSans-Bold-20" transform="translate(288.232422 0)"/>
     <use xlink:href="#DejaVuSans-Bold-5b" transform="translate(323.046875 0)"/>
     <use xlink:href="#DejaVuSans-Bold-2d" transform="translate(368.75 0)"/>
     <use xlink:href="#DejaVuSans-Bold-30" transform="translate(410.253906 0)"/>
     <use xlink:href="#DejaVuSans-Bold-2e" transform="translate(479.833984 0)"/>
     <use xlink:href="#DejaVuSans-Bold-39" transform="translate(517.822266 0)"/>
     <use xlink:href="#DejaVuSans-Bold-31" transform="translate(587.402344 0)"/>
     <use xlink:href="#DejaVuSans-Bold-2c" transform="translate(656.982422 0)"/>
     <use xlink:href="#DejaVuSans-Bold-20" transform="translate(694.970703 0)"/>
     <use xlink:href="#DejaVuSans-Bold-30" transform="translate(729.785156 0)"/>
     <use xlink:href="#DejaVuSans-Bold-2e" transform="translate(799.365234 0)"/>
     <use xlink:href="#DejaVuSans-Bold-30" transform="translate(837.353516 0)"/>
     <use xlink:href="#DejaVuSans-Bold-34" transform="translate(906.933594 0)"/>
     <use xlink:href="#DejaVuSans-Bold-5d" transform="translate(976.513672 0)"/>
    </g>
   </g>
   <g id="line2d_29">
    <defs>
     <path id="m2e1edc0bd9" d="M -0 9.899495 
L 9.899495 0 
L 0 -9.899495 
L -9.899495 -0 
z
" style="stroke: #c53030; stroke-width: 1.5; stroke-linejoin: miter"/>
    </defs>
    <g clip-path="url(#p25705d1569)">
     <use xlink:href="#m2e1edc0bd9" x="554.693212" y="344.001818" style="fill: #e53e3e; stroke: #c53030; stroke-width: 1.5; stroke-linejoin: miter"/>
    </g>
   </g>
  </g>
 </g>
 <defs>
  <clipPath id="p25705d1569">
   <rect x="410.40625" y="7.2" width="274.37" height="352.84"/>
  </clipPath>
 </defs>
</svg>
